<?xml version="1.0" encoding="UTF-8" standalone="no"?>
<svg
   xmlns:dc="http://purl.org/dc/elements/1.1/"
   xmlns:cc="http://creativecommons.org/ns#"
   xmlns:rdf="http://www.w3.org/1999/02/22-rdf-syntax-ns#"
   xmlns:svg="http://www.w3.org/2000/svg"
   xmlns="http://www.w3.org/2000/svg"
   xmlns:sodipodi="http://sodipodi.sourceforge.net/DTD/sodipodi-0.dtd"
   xmlns:inkscape="http://www.inkscape.org/namespaces/inkscape"
   version="1.1"
   x="0px"
   y="0px"
   viewBox="0 0 93.533997 110"
   xml:space="preserve"
   id="svg30"
   sodipodi:docname="light.svg"
   width="93.533997"
   height="110"
   inkscape:version="1.0.2 (e86c8708, 2021-01-15)"><metadata
     id="metadata36"><rdf:RDF><cc:Work
         rdf:about=""><dc:format>image/svg+xml</dc:format><dc:type
           rdf:resource="http://purl.org/dc/dcmitype/StillImage" /><dc:title /></cc:Work></rdf:RDF></metadata><defs
     id="defs34" /><sodipodi:namedview
     pagecolor="#ffffff"
     bordercolor="#666666"
     borderopacity="1"
     objecttolerance="10"
     gridtolerance="10"
     guidetolerance="10"
     inkscape:pageopacity="0"
     inkscape:pageshadow="2"
     inkscape:window-width="1302"
     inkscape:window-height="855"
     id="namedview32"
     showgrid="false"
     fit-margin-top="10"
     fit-margin-right="10"
     fit-margin-bottom="10"
     fit-margin-left="10"
     inkscape:zoom="1.888"
     inkscape:cx="46.767"
     inkscape:cy="42.5"
     inkscape:window-x="0"
     inkscape:window-y="25"
     inkscape:window-maximized="0"
     inkscape:current-layer="svg30"
     inkscape:document-rotation="0" /><g
     id="g24"
     transform="translate(-3.233,5)"><path
       d="m 59.632,75.107 v -2.822 c 0,-4.96 2.015,-9.725 5.529,-13.073 4.396,-4.189 6.817,-9.839 6.817,-15.909 0,-12.119 -9.859,-21.978 -21.978,-21.978 -0.827,0 -1.667,0.046 -2.496,0.138 -10.5,1.161 -18.86,10.013 -19.447,20.591 -0.354,6.379 2.066,12.583 6.64,17.02 3.604,3.496 5.671,8.31 5.671,13.208 v 2.824 c 0,2.999 2.439,5.438 5.438,5.438 h 8.387 c 2.999,0.002 5.439,-2.438 5.439,-5.437 z m -4,0 c 0,0.793 -0.646,1.438 -1.438,1.438 h -8.387 c -0.793,0 -1.438,-0.646 -1.438,-1.438 v -2.824 c 0,-5.973 -2.51,-11.833 -6.886,-16.079 -3.741,-3.629 -5.721,-8.706 -5.431,-13.927 0.48,-8.65 7.312,-15.888 15.893,-16.837 0.684,-0.076 1.376,-0.114 2.057,-0.114 9.913,0 17.978,8.064 17.978,17.978 0,4.965 -1.98,9.586 -5.576,13.013 -4.302,4.099 -6.77,9.919 -6.77,15.969 v 2.821 z"
       id="path2"
       inkscape:connector-curvature="0" /><path
       d="M 56.509,82.521 H 43.491 c -0.829,0 -1.5,0.671 -1.5,1.5 0,0.829 0.671,1.5 1.5,1.5 H 56.51 c 0.829,0 1.5,-0.671 1.5,-1.5 0,-0.829 -0.672,-1.5 -1.501,-1.5 z"
       id="path4"
       inkscape:connector-curvature="0" /><path
       d="m 58.009,88.761 c 0,-0.829 -0.671,-1.5 -1.5,-1.5 H 43.491 c -0.829,0 -1.5,0.671 -1.5,1.5 0,0.829 0.671,1.5 1.5,1.5 H 56.51 c 0.828,0 1.499,-0.672 1.499,-1.5 z"
       id="path6"
       inkscape:connector-curvature="0" /><path
       d="m 14.733,43.267 h 8.643 c 0.829,0 1.5,-0.671 1.5,-1.5 0,-0.829 -0.671,-1.5 -1.5,-1.5 h -8.643 c -0.829,0 -1.5,0.671 -1.5,1.5 0,0.829 0.671,1.5 1.5,1.5 z"
       id="path8"
       inkscape:connector-curvature="0" /><path
       d="m 86.767,41.767 c 0,-0.829 -0.671,-1.5 -1.5,-1.5 h -8.643 c -0.829,0 -1.5,0.671 -1.5,1.5 0,0.829 0.671,1.5 1.5,1.5 h 8.643 c 0.829,0 1.5,-0.671 1.5,-1.5 z"
       id="path10"
       inkscape:connector-curvature="0" /><path
       d="m 48.5,6.5 v 8.643 c 0,0.829 0.671,1.5 1.5,1.5 0.829,0 1.5,-0.671 1.5,-1.5 V 6.5 C 51.5,5.671 50.829,5 50,5 49.171,5 48.5,5.671 48.5,6.5 Z"
       id="path12"
       inkscape:connector-curvature="0" /><path
       d="m 73.877,15.769 -6.111,6.111 c -0.586,0.585 -0.586,1.536 0,2.121 0.293,0.293 0.677,0.439 1.061,0.439 0.384,0 0.768,-0.146 1.061,-0.439 l 6.111,-6.111 c 0.586,-0.585 0.586,-1.536 0,-2.121 -0.587,-0.586 -1.536,-0.586 -2.122,0 z"
       id="path14"
       inkscape:connector-curvature="0" /><path
       d="m 32.234,59.533 c -0.586,-0.586 -1.535,-0.586 -2.121,0 l -6.111,6.111 c -0.586,0.585 -0.586,1.535 0,2.121 0.293,0.293 0.677,0.439 1.061,0.439 0.384,0 0.768,-0.146 1.061,-0.439 l 6.111,-6.111 c 0.585,-0.585 0.585,-1.535 -10e-4,-2.121 z"
       id="path16"
       inkscape:connector-curvature="0" /><path
       d="m 30.113,24.001 c 0.293,0.293 0.677,0.439 1.061,0.439 0.384,0 0.768,-0.146 1.061,-0.439 0.586,-0.585 0.586,-1.536 0,-2.121 l -6.111,-6.111 c -0.586,-0.586 -1.535,-0.586 -2.121,0 -0.586,0.585 -0.586,1.536 0,2.121 z"
       id="path18"
       inkscape:connector-curvature="0" /><path
       d="m 73.877,67.765 c 0.293,0.293 0.677,0.439 1.061,0.439 0.384,0 0.768,-0.146 1.061,-0.439 0.586,-0.586 0.586,-1.536 0,-2.121 l -6.111,-6.111 c -0.586,-0.586 -1.535,-0.586 -2.121,0 -0.586,0.586 -0.586,1.536 0,2.121 z"
       id="path20"
       inkscape:connector-curvature="0" /><path
       d="m 54.754,93.5 c 0,-0.829 -0.671,-1.5 -1.5,-1.5 h -6.509 c -0.829,0 -1.5,0.671 -1.5,1.5 0,0.829 0.671,1.5 1.5,1.5 h 6.509 c 0.829,0 1.5,-0.671 1.5,-1.5 z"
       id="path22"
       inkscape:connector-curvature="0" /></g><path
     style="fill:#ffff00;stroke-width:0.529661"
     d="m 41.841961,80.83061 c -0.204364,-0.204364 -0.371571,-1.59268 -0.371571,-3.085148 0,-3.180148 -1.155148,-7.954225 -2.618826,-10.823272 -0.56919,-1.115703 -2.327867,-3.551495 -3.908173,-5.412871 -4.209878,-4.958637 -5.26341,-7.330882 -5.546581,-12.489275 -0.218729,-3.984463 -0.107473,-4.617229 1.365128,-7.764103 1.840327,-3.93269 4.90751,-7.155856 8.487682,-8.91933 2.068712,-1.018978 3.329537,-1.224323 7.51738,-1.224323 5.932644,0 8.645173,1.048719 12.384588,4.788134 3.389521,3.389521 4.734873,6.540798 4.986324,11.679682 0.264272,5.400934 -0.901987,8.382982 -5.360187,13.705653 -4.718442,5.633376 -6.106545,8.888409 -6.652379,15.599491 l -0.326566,4.015176 -4.792624,0.150878 c -2.635944,0.08298 -4.959831,-0.01633 -5.164195,-0.220692 z"
     id="path78" /></svg>
