<?xml version="1.0" encoding="UTF-8" standalone="no"?>
<svg
   xmlns:dc="http://purl.org/dc/elements/1.1/"
   xmlns:cc="http://creativecommons.org/ns#"
   xmlns:rdf="http://www.w3.org/1999/02/22-rdf-syntax-ns#"
   xmlns:svg="http://www.w3.org/2000/svg"
   xmlns="http://www.w3.org/2000/svg"
   xmlns:sodipodi="http://sodipodi.sourceforge.net/DTD/sodipodi-0.dtd"
   xmlns:inkscape="http://www.inkscape.org/namespaces/inkscape"
   version="1.1"
   x="0px"
   y="0px"
   viewBox="0 0 93.533997 110"
   xml:space="preserve"
   id="svg30"
   sodipodi:docname="Noun_Project_lightbulb_icon_1263005_cc.svg"
   width="93.533997"
   height="110"
   inkscape:version="1.0.2 (e86c8708, 2021-01-15)"><metadata
     id="metadata36"><rdf:RDF><cc:Work
         rdf:about=""><dc:format>image/svg+xml</dc:format><dc:type
           rdf:resource="http://purl.org/dc/dcmitype/StillImage" /><dc:title /></cc:Work></rdf:RDF></metadata><defs
     id="defs34" /><sodipodi:namedview
     pagecolor="#ffffff"
     bordercolor="#666666"
     borderopacity="1"
     objecttolerance="10"
     gridtolerance="10"
     guidetolerance="10"
     inkscape:pageopacity="0"
     inkscape:pageshadow="2"
     inkscape:window-width="1527"
     inkscape:window-height="896"
     id="namedview32"
     showgrid="false"
     fit-margin-top="10"
     fit-margin-right="10"
     fit-margin-bottom="10"
     fit-margin-left="10"
     inkscape:zoom="3.8338897"
     inkscape:cx="28.949704"
     inkscape:cy="55.718385"
     inkscape:window-x="0"
     inkscape:window-y="25"
     inkscape:window-maximized="0"
     inkscape:current-layer="svg30"
     inkscape:document-rotation="0" /><g
     id="g24"
     transform="translate(-3.233,5)"><path
       id="path2"
       transform="translate(3.233,-5)"
       d="m 46.767578,26.324219 c -0.827,0 -1.667094,0.04667 -2.496094,0.138672 -10.5,1.161 -18.860265,10.013795 -19.447265,20.591797 -0.354,6.378999 2.066625,12.582531 6.640625,17.019531 3.604,3.496 5.669922,8.309031 5.669922,13.207031 v 2.824219 c 0,2.999 2.4385,5.439453 5.4375,5.439453 h 8.388672 c 2.999,0.002 5.4375,-2.4385 5.4375,-5.4375 v -2.822266 c 0,-4.96 2.015296,-9.724265 5.529296,-13.072265 4.396,-4.189 6.816407,-9.840157 6.816407,-15.910157 0,-12.119 -9.857563,-21.978515 -21.976563,-21.978515 z m 0.002,4.001953 c 9.913,0 17.976563,8.064515 17.976563,17.978516 0,4.965 -1.978219,9.584718 -5.574219,13.011718 -4.302,4.099 -6.771484,9.91875 -6.771484,15.96875 v 2.822266 h -0.002 c 0,0.793 -0.6455,1.4375 -1.4375,1.4375 h -8.386719 c -0.793,0 -1.4375,-0.6455 -1.4375,-1.4375 v -2.824219 c 0,-5.973 -2.510719,-11.834078 -6.886719,-16.080078 -3.741,-3.629 -5.721641,-8.704781 -5.431641,-13.925781 0.48,-8.65 7.313532,-15.888891 15.894532,-16.837891 0.684,-0.076 1.37564,-0.113281 2.05664,-0.113281 z" /><path
       d="M 56.509,82.521 H 43.491 c -0.829,0 -1.5,0.671 -1.5,1.5 0,0.829 0.671,1.5 1.5,1.5 H 56.51 c 0.829,0 1.5,-0.671 1.5,-1.5 0,-0.829 -0.672,-1.5 -1.501,-1.5 z"
       id="path4"
       inkscape:connector-curvature="0" /><path
       d="m 58.009,88.761 c 0,-0.829 -0.671,-1.5 -1.5,-1.5 H 43.491 c -0.829,0 -1.5,0.671 -1.5,1.5 0,0.829 0.671,1.5 1.5,1.5 H 56.51 c 0.828,0 1.499,-0.672 1.499,-1.5 z"
       id="path6"
       inkscape:connector-curvature="0" /><path
       id="path8"
       transform="translate(3.233,-5)"
       d="m 15.921875,48.240234 c -0.161384,-0.0033 -0.287203,0.01686 -0.425781,0.02734 h 0.623047 c -0.06606,-0.0065 -0.130906,-0.02599 -0.197266,-0.02734 z" /><path
       id="path12"
       transform="translate(3.233,-5)"
       d="m 45.267578,19.902344 v 0.240234 c 0,0.07151 0.0099,0.140154 0.01953,0.208984 -0.0029,-0.150884 -0.0083,-0.300809 -0.01953,-0.449218 z" /><path
       d="m 54.754,93.5 c 0,-0.829 -0.671,-1.5 -1.5,-1.5 h -6.509 c -0.829,0 -1.5,0.671 -1.5,1.5 0,0.829 0.671,1.5 1.5,1.5 h 6.509 c 0.829,0 1.5,-0.671 1.5,-1.5 z"
       id="path22"
       inkscape:connector-curvature="0" /></g></svg>
